<svg width="32" height="32" viewBox="0 0 32 32" fill="none" xmlns="http://www.w3.org/2000/svg">
<path d="M16 24C16 28.4183 19.5817 32 24 32C28.4183 32 32 28.4183 32 24C32 19.5817 28.4183 16 24 16H16V24Z" fill="#FFD11A"/>
<path d="M16 8C16 3.58172 12.4183 0 8 0C3.58172 0 0 3.58172 0 8C0 12.4183 3.58172 16 8 16H16V8Z" fill="#FFD11A"/>
<path fill-rule="evenodd" clip-rule="evenodd" d="M24 0C19.5817 0 16 3.58172 16 8V16H24C28.4183 16 32 12.4183 32 8C32 3.58172 28.4183 0 24 0ZM28 8C28 10.2091 26.2091 12 24 12C21.7909 12 20 10.2091 20 8C20 5.79086 21.7909 4 24 4C26.2091 4 28 5.79086 28 8Z" fill="#404040"/>
<path fill-rule="evenodd" clip-rule="evenodd" d="M8 32C12.4183 32 16 28.4183 16 24V16H8C3.58172 16 0 19.5817 0 24C0 28.4183 3.58172 32 8 32ZM12 24C12 26.2091 10.2091 28 8 28C5.79086 28 4 26.2091 4 24C4 21.7909 5.79086 20 8 20C10.2091 20 12 21.7909 12 24Z" fill="#404040"/>
</svg>
